<svg width="36" height="36" viewBox="0 0 36 36" fill="none" xmlns="http://www.w3.org/2000/svg">
<path d="M20.3288 18H15.6825C15.4008 17.9971 15.1317 17.883 14.9336 17.6826C14.7356 17.4823 14.6247 17.2119 14.625 16.9302V14.5688C14.6247 14.2871 14.7356 14.0166 14.9336 13.8163C15.1317 13.6159 15.4008 13.5019 15.6825 13.4989H20.3175C20.898 13.4989 21.375 13.9827 21.375 14.5688V16.929C21.3774 17.0682 21.3521 17.2065 21.3007 17.3358C21.2492 17.4651 21.1726 17.583 21.0753 17.6825C20.978 17.782 20.8619 17.8612 20.7338 17.9155C20.6056 17.9698 20.4679 17.9982 20.3288 17.9989" fill="#484747"/>
<path d="M25.8761 4.50001H20.25V4.67551L25.5375 6.86814C25.6038 6.89229 25.6643 6.92993 25.7153 6.97869C25.7663 7.02745 25.8066 7.08626 25.8337 7.1514C25.8607 7.21655 25.874 7.2866 25.8726 7.35713C25.8712 7.42766 25.8552 7.49713 25.8255 7.56114C25.7565 7.694 25.6392 7.79534 25.4977 7.84431C25.3562 7.89328 25.2014 7.88615 25.065 7.82439L20.25 5.82751V7.92339C24.0525 8.35314 27 11.5763 27 15.4946V31.5214C27.0006 31.9619 26.9143 32.3981 26.746 32.8052C26.5778 33.2123 26.3309 33.5822 26.0195 33.8937C25.7081 34.2052 25.3383 34.4522 24.9312 34.6206C24.5242 34.789 24.088 34.8755 23.6475 34.875H7.31251C6.82876 34.875 6.63751 34.4138 6.75001 33.9413L9.00001 25.875V12.375C9.00001 6.81414 13.536 2.25001 19.125 2.25001H25.8649C26.1633 2.24852 26.45 2.36562 26.662 2.57554C26.8741 2.78547 26.994 3.07102 26.9955 3.36939C26.997 3.66776 26.8799 3.9545 26.67 4.16653C26.4601 4.37857 26.1745 4.49852 25.8761 4.50001ZM24.75 15.4946C24.7509 14.7895 24.6127 14.0912 24.3434 13.4395C24.0741 12.7878 23.6789 12.1957 23.1805 11.697C22.682 11.1982 22.0901 10.8026 21.4386 10.5329C20.7872 10.2632 20.0889 10.1246 19.3838 10.125H16.6163C15.9111 10.1246 15.2129 10.2632 14.5614 10.5329C13.9099 10.8026 13.318 11.1982 12.8196 11.697C12.3211 12.1957 11.9259 12.7878 11.6566 13.4395C11.3873 14.0912 11.2491 14.7895 11.25 15.4946V23.625H24.75V15.4946ZM11.25 25.875C11.25 25.875 12.4954 30.3266 13.1344 32.625H23.6475C24.2595 32.625 24.75 32.1311 24.75 31.5225V24.75H11.25V25.875ZM14.6408 5.92201C13.3284 6.83983 12.3223 8.13094 11.7529 9.62776C12.8211 8.73975 14.1127 8.16224 15.4868 7.95826C15.1829 7.71999 14.9454 7.4075 14.7972 7.05088C14.6491 6.69425 14.5952 6.30549 14.6408 5.92201ZM16.8683 7.20001C17.0965 7.20073 17.3197 7.13234 17.5083 7.00383C17.697 6.87532 17.8423 6.69271 17.9252 6.48003C18.0082 6.26735 18.0247 6.03455 17.9728 5.81226C17.9209 5.58997 17.8029 5.3886 17.6344 5.23464L16.8806 6.08626V4.95001C16.7324 4.94927 16.5855 4.97782 16.4484 5.03403C16.3112 5.09023 16.1866 5.17298 16.0815 5.27752C15.9764 5.38206 15.8931 5.50633 15.8362 5.64319C15.7793 5.78005 15.75 5.9268 15.75 6.07501C15.75 6.70051 16.2405 7.20001 16.8683 7.20001Z" fill="#484747"/>
</svg>
