<svg width="22" height="29" viewBox="0 0 22 29" fill="none" xmlns="http://www.w3.org/2000/svg">
<path fill-rule="evenodd" clip-rule="evenodd" d="M17.1212 5.02746C19.2076 3.63755 22 5.13257 22 7.63786V12.7567C22 15.262 19.2076 16.757 17.1212 15.3671L12.5012 12.2876L13.8942 10.1981L12.5012 8.10692L17.1212 5.02746ZM15.0237 10.1981L18.8625 12.7567V7.63786L15.0237 10.1981ZM17.1588 26.5225C16.9896 26.9025 16.6765 27.1998 16.2881 27.3489C15.8998 27.4981 15.4681 27.4869 15.0881 27.3178L10.2343 25.1608V26.6699C10.2343 27.086 10.0691 27.485 9.77486 27.7792C9.48066 28.0734 9.08164 28.2387 8.66558 28.2387C8.24952 28.2387 7.8505 28.0734 7.55631 27.7792C7.26211 27.485 7.09683 27.086 7.09683 26.6699V25.1608L2.2431 27.3178C2.05398 27.4079 1.84874 27.4591 1.6395 27.4686C1.43025 27.478 1.22123 27.4454 1.02477 27.3728C0.828307 27.3002 0.648378 27.1889 0.495598 27.0457C0.342817 26.9024 0.220278 26.7299 0.135209 26.5385C0.0501392 26.3471 0.00426192 26.1406 0.000283081 25.9312C-0.00369576 25.7218 0.0343043 25.5137 0.112042 25.3192C0.189779 25.1247 0.30568 24.9477 0.452908 24.7987C0.600136 24.6498 0.775709 24.5318 0.969271 24.4517L7.09683 21.7284V15.6887C7.09683 15.2726 7.26211 14.8736 7.55631 14.5794C7.8505 14.2852 8.24952 14.1199 8.66558 14.1199C9.08164 14.1199 9.48066 14.2852 9.77486 14.5794C10.0691 14.8736 10.2343 15.2726 10.2343 15.6887V21.7284L16.3619 24.4517C16.5502 24.5353 16.7202 24.6552 16.8622 24.8046C17.0041 24.9539 17.1153 25.1297 17.1893 25.322C17.2633 25.5143 17.2987 25.7193 17.2935 25.9253C17.2882 26.1312 17.2425 26.3342 17.1588 26.5225Z" fill="#FBBF24"/>
<path fill-rule="evenodd" clip-rule="evenodd" d="M2.38867 7.06035C2.38867 6.22823 2.71923 5.4302 3.30763 4.8418C3.89602 4.25341 4.69406 3.92285 5.52618 3.92285H11.8012C12.6333 3.92285 13.4314 4.25341 14.0198 4.8418C14.6082 5.4302 14.9387 6.22823 14.9387 7.06035V13.3353C14.9387 14.1675 14.6082 14.9655 14.0198 15.5539C13.4314 16.1423 12.6333 16.4728 11.8012 16.4728H5.52618C4.69406 16.4728 3.89602 16.1423 3.30763 15.5539C2.71923 14.9655 2.38867 14.1675 2.38867 13.3353V7.06035ZM11.8012 7.06035H5.52618V13.3353H11.8012V7.06035Z" fill="#FBBF24"/>
<path fill-rule="evenodd" clip-rule="evenodd" d="M12.2628 7.3852C12.117 7.23951 12.0013 7.06649 11.9223 6.87605C11.8434 6.68561 11.8027 6.48147 11.8027 6.27531C11.8027 6.06916 11.8434 5.86502 11.9223 5.67458C12.0013 5.48413 12.117 5.31112 12.2628 5.16542L16.9691 0.459177C17.1148 0.313527 17.2879 0.198012 17.4783 0.119226C17.6687 0.0404402 17.8727 -7.27348e-05 18.0788 9.80278e-08C18.2848 7.29309e-05 18.4888 0.0407301 18.6792 0.11965C18.8695 0.198571 19.0424 0.314208 19.1881 0.459961C19.3337 0.605714 19.4493 0.778727 19.5281 0.969123C19.6068 1.15952 19.6473 1.36357 19.6473 1.56962C19.6472 1.77567 19.6065 1.97969 19.5276 2.17003C19.4487 2.36037 19.3331 2.53331 19.1873 2.67896L14.481 7.3852C14.1869 7.6793 13.7879 7.84451 13.3719 7.84451C12.956 7.84451 12.557 7.6793 12.2628 7.3852ZM19.1873 19.9352C18.8931 20.2293 18.4942 20.3945 18.0782 20.3945C17.6622 20.3945 17.2633 20.2293 16.9691 19.9352L12.2628 15.2289C11.9685 14.9348 11.803 14.5358 11.8029 14.1196C11.8028 13.9136 11.8433 13.7095 11.9221 13.5191C12.0009 13.3287 12.1164 13.1557 12.262 13.01C12.4077 12.8642 12.5806 12.7486 12.771 12.6696C12.9613 12.5907 13.1653 12.5501 13.3714 12.55C13.7875 12.5498 14.1867 12.715 14.481 13.0092L19.1873 17.7154C19.3332 17.8611 19.4489 18.0341 19.5278 18.2246C19.6068 18.415 19.6474 18.6191 19.6474 18.8253C19.6474 19.0315 19.6068 19.2356 19.5278 19.426C19.4489 19.6165 19.3332 19.7895 19.1873 19.9352Z" fill="#FBBF24"/>
</svg>
